# xmcd
#
# Track frame offsets:
#	150
#	9591
#	24840
#	37816
#	52734
#	60635
#	70797
#	85337
#	98308
#	111749
#	123670
#	137488
#	151925
#	163000
#	178571
#	193091
#	206010
#	221940
#	231279
#	247524
#	257743
#	276862
#	295028
#	307912
#	320367
#
# Disc length: 4436
#
# Revision: 3
# Processed by: cddbd v1.5.1PL0 Copyright (c) Steve Scherf et al.
# Submitted via: CDex 1.51
# Normalized: r1:TDELIM( - ),TSWAP
#
DISCID=52115219
DTITLE=Various Artist - Jazz Station
DYEAR=2001
DGENRE=Jazz
TTITLE0=Tony Bennett - Jeepers Creepers
TTITLE1=Frank Sinatra - Nancy With The Laughing Face
TTITLE2=Nat King Cole - Nature Boy
TTITLE3=Duke Ellington - Misty Morning
TTITLE4=Doris Day - Blue Skies
TTITLE5=Peggy Lee - Just One Of Those Things
TTITLE6=Billie Holiday - Who Loves You
TTITLE7=Louis Armstrong - Sweethearts On Paradise
TTITLE8=Larry Clinton - The Dipsey Doodle
TTITLE9=Jimmy Dorsey - So Rare
TTITLE10=Ella Fitzgerald - How High The Moon
TTITLE11=Cab Calloway - Minnie The Moocher
TTITLE12=Dinah Washington - I Cried For You
TTITLE13=Nina Simone - I Want A Little Sugar In My Bowl
TTITLE14=Benny Goodman - And The Angels Sing
TTITLE15=Billie Holiday - A Fine Romance
TTITLE16=Lena Horne - Good For Nothing Joe
TTITLE17=Peggy Lee - You
TTITLE18=Glenn Miller - A Nightingale Sang In Berkeley Square
TTITLE19=Sarah Vaughan - You Stepped Out Of A Dream
TTITLE20=Al Jerreau - The Masquerade Is Over
TTITLE21=Fats Waller - Ain't Misbehavin'
TTITLE22=Eddie Harris - Exodus
TTITLE23=The Andrews Sisters - Don't Be That Way
TTITLE24=Louis Jordan - Choo Choo Ch'Boogie
EXTD=YEAR: 2001
EXTT0=
EXTT1=
EXTT2=
EXTT3=
EXTT4=
EXTT5=
EXTT6=
EXTT7=
EXTT8=
EXTT9=
EXTT10=
EXTT11=
EXTT12=
EXTT13=
EXTT14=
EXTT15=
EXTT16=
EXTT17=
EXTT18=
EXTT19=
EXTT20=
EXTT21=
EXTT22=
EXTT23=
EXTT24=
PLAYORDER=
